<?xml version="1.0"?>
<svg fill='#132c33' xmlns="http://www.w3.org/2000/svg" viewBox="0 0 50 50">
    <path style="line-height:normal;text-indent:0;text-align:start;text-decoration-line:none;text-decoration-style:solid;text-decoration-color:#000;text-transform:none;block-progression:tb;isolation:auto;mix-blend-mode:normal" d="M 19.984375 0.98632812 A 1.0001 1.0001 0 0 0 19 2 L 19 8 A 1.0001 1.0001 0 1 0 21 8 L 21 2 A 1.0001 1.0001 0 0 0 19.984375 0.98632812 z M 10.990234 3.9902344 A 1.0001 1.0001 0 0 0 10.292969 5.7070312 L 14.292969 9.7070312 A 1.0001 1.0001 0 1 0 15.707031 8.2929688 L 11.707031 4.2929688 A 1.0001 1.0001 0 0 0 10.990234 3.9902344 z M 28.980469 3.9902344 A 1.0001 1.0001 0 0 0 28.292969 4.2929688 L 24.292969 8.2929688 A 1.0001 1.0001 0 1 0 25.707031 9.7070312 L 29.707031 5.7070312 A 1.0001 1.0001 0 0 0 28.980469 3.9902344 z M 39.171875 6 C 38.448125 6 37.724375 6.275625 37.171875 6.828125 L 19.171875 24.828125 L 18 26 C 18 26 15.075422 20.494391 13.607422 19.025391 C 11.050422 16.469391 6.0999219 15.218438 4.7949219 16.523438 L 3 18.318359 L 8.65625 23.974609 L 13 37 L 20.851562 44.851562 C 23.694562 47.694562 28.305437 47.694563 31.148438 44.851562 L 33.171875 42.828125 L 42.171875 33.828125 C 43.276875 32.723125 43.276875 30.933125 42.171875 29.828125 C 41.066875 28.723125 39.276875 28.723125 38.171875 29.828125 L 39.171875 28.828125 C 40.276875 27.723125 40.276875 25.933125 39.171875 24.828125 C 38.066875 23.723125 36.276875 23.723125 35.171875 24.828125 L 36.171875 23.828125 C 37.276875 22.723125 37.276875 20.933125 36.171875 19.828125 C 35.066875 18.723125 33.276875 18.723125 32.171875 19.828125 L 41.171875 10.828125 C 42.276875 9.723125 42.276875 7.933125 41.171875 6.828125 C 40.619375 6.275625 39.895625 6 39.171875 6 z" font-weight="400" font-family="sans-serif" white-space="normal" overflow="visible"/>
</svg>
